<svg width="114" height="115" xmlns="http://www.w3.org/2000/svg" xmlns:xlink="http://www.w3.org/1999/xlink" xml:space="preserve" overflow="hidden"><defs><clipPath id="clip0"><rect x="800" y="121" width="114" height="115"/></clipPath><clipPath id="clip1"><rect x="801" y="122" width="113" height="113"/></clipPath><clipPath id="clip2"><rect x="801" y="122" width="113" height="113"/></clipPath><clipPath id="clip3"><rect x="801" y="122" width="113" height="113"/></clipPath></defs><g clip-path="url(#clip0)" transform="translate(-800 -121)"><g clip-path="url(#clip1)"><g clip-path="url(#clip2)"><g clip-path="url(#clip3)"><path d="M891.282 195.332 885.985 192.272 890.105 191.212C891.4 190.859 892.106 189.565 891.753 188.387 891.4 187.21 890.105 186.386 888.928 186.74L880.218 189.094 876.804 187.093 887.398 184.268C888.693 183.915 889.399 182.62 889.046 181.443 888.693 180.266 887.398 179.442 886.221 179.795L871.036 183.797 866.564 181.207C866.799 180.383 866.917 179.559 866.917 178.735 866.917 177.911 866.799 176.97 866.564 176.264L871.036 173.674 886.221 177.676C886.456 177.676 886.574 177.794 886.809 177.794 887.869 177.794 888.81 177.087 889.046 176.028 889.399 174.733 888.693 173.439 887.398 173.203L876.804 170.378 880.218 168.377 888.928 170.731C889.164 170.731 889.281 170.849 889.517 170.849 890.576 170.849 891.518 170.143 891.753 169.083 892.106 167.789 891.4 166.494 890.105 166.258L885.985 165.199 891.282 162.139C892.459 161.432 892.812 160.02 892.106 158.96 891.4 157.783 889.987 157.43 888.928 158.136L883.631 161.197 884.691 157.077C885.044 155.782 884.338 154.488 883.043 154.252 881.748 153.899 880.453 154.605 880.218 155.9L877.864 164.61 874.45 166.611 877.275 156.018C877.628 154.723 876.922 153.428 875.627 153.193 874.332 152.84 873.037 153.546 872.802 154.841L868.8 170.025 864.327 172.615C863.15 171.438 861.62 170.496 859.972 170.143L859.972 164.964 871.036 153.899C871.978 152.957 871.978 151.545 871.036 150.603 870.095 149.661 868.682 149.661 867.741 150.603L859.854 157.548 859.854 153.664 866.21 147.307C867.152 146.366 867.152 144.953 866.21 144.011 865.269 143.07 863.856 143.07 862.915 144.011L859.854 146.954 859.854 140.833C859.854 139.539 858.795 138.479 857.5 138.479 856.205 138.479 855.146 139.539 855.146 140.833L855.146 146.954 852.085 143.894C851.144 142.952 849.731 142.952 848.79 143.894 847.848 144.835 847.848 146.248 848.79 147.19L855.146 153.546 855.146 157.43 847.377 149.661C846.435 148.72 845.023 148.72 844.081 149.661 843.14 150.603 843.14 152.016 844.081 152.957L855.146 164.022 855.146 169.201C853.498 169.672 851.968 170.496 850.791 171.673L846.318 169.083 842.198 154.134C841.845 152.84 840.55 152.133 839.373 152.486 838.078 152.84 837.372 154.134 837.725 155.311L840.55 165.905 837.136 163.904 834.782 155.194C834.429 153.899 833.134 153.193 831.957 153.546 830.662 153.899 829.956 155.194 830.309 156.371L831.369 160.491 826.072 157.43C824.895 156.724 823.482 157.195 822.894 158.254 822.188 159.431 822.658 160.844 823.718 161.432L829.015 164.493 824.895 165.552C823.6 165.905 822.894 167.2 823.247 168.377 823.482 169.436 824.424 170.143 825.483 170.143 825.719 170.143 825.836 170.143 826.072 170.025L834.782 167.671 838.196 169.672 827.602 172.497C826.307 172.85 825.601 174.145 825.954 175.322 826.19 176.381 827.131 177.087 828.191 177.087 828.426 177.087 828.544 177.087 828.779 176.97L843.964 172.968 848.436 175.557C848.201 176.734 848.083 177.676 848.083 178.5 848.083 179.324 848.201 180.266 848.436 180.972L843.964 183.561 828.779 179.559C827.484 179.206 826.19 179.913 825.954 181.207 825.719 182.502 826.307 183.797 827.602 184.032L838.196 186.857 834.782 188.858 826.072 186.504C824.777 186.151 823.482 186.857 823.247 188.152 823.011 189.447 823.6 190.742 824.895 190.977L829.015 192.036 823.718 195.097C822.541 195.803 822.188 197.216 822.894 198.275 823.365 198.981 824.071 199.452 824.895 199.452 825.248 199.452 825.719 199.334 826.072 199.099L831.369 196.039 830.309 200.158C829.956 201.453 830.662 202.748 831.957 202.983 832.193 202.983 832.31 203.101 832.546 203.101 833.605 203.101 834.547 202.395 834.782 201.335L837.136 192.625 840.55 190.624 837.725 201.218C837.372 202.512 838.078 203.807 839.373 204.043 839.608 204.043 839.726 204.16 839.961 204.16 841.021 204.16 841.963 203.454 842.198 202.395L846.2 187.21 850.673 184.621C851.85 185.798 853.38 186.74 855.028 187.093L855.028 192.272 843.964 203.336C843.022 204.278 843.022 205.691 843.964 206.632 844.905 207.574 846.318 207.574 847.259 206.632L855.028 198.864 855.028 202.748 848.672 209.104C847.73 210.046 847.73 211.458 848.672 212.4 849.614 213.342 851.026 213.342 851.968 212.4L855.028 209.34 855.028 216.167C855.028 217.461 856.088 218.521 857.382 218.521 858.677 218.521 859.736 217.461 859.736 216.167L859.736 210.046 862.797 213.106C863.385 213.577 863.974 213.812 864.562 213.812 865.151 213.812 865.74 213.577 866.21 213.106 867.152 212.165 867.152 210.752 866.21 209.81L859.854 203.454 859.854 199.57 867.623 207.339C868.094 207.692 868.682 207.927 869.271 207.927 869.859 207.927 870.448 207.692 870.919 207.221 871.86 206.279 871.86 204.867 870.919 203.925L859.854 192.86 859.854 187.681C861.502 187.21 863.032 186.386 864.209 185.209L868.682 187.799 872.802 202.866C873.037 203.925 873.979 204.631 875.039 204.631 875.274 204.631 875.392 204.631 875.627 204.514 876.922 204.16 877.628 202.866 877.275 201.689L874.45 191.095 877.864 193.096 880.218 201.806C880.453 202.866 881.395 203.572 882.454 203.572 882.69 203.572 882.807 203.572 883.043 203.454 884.338 203.101 885.044 201.806 884.691 200.629L883.631 196.509 888.928 199.57C889.281 199.805 889.752 199.923 890.105 199.923 890.929 199.923 891.753 199.452 892.106 198.746 892.812 197.333 892.459 195.921 891.282 195.332Z" fill="#3A270B" fill-rule="nonzero" fill-opacity="1"/></g></g></g></g></svg>